<svg width="444" height="584" viewBox="0 0 444 584" fill="none" xmlns="http://www.w3.org/2000/svg">
<path d="M204 283V253.5H222V258.5H238.5V248.5H246V253.5H249.5V276H257V283H204Z" fill="#FFF59D" fill-opacity="0.7" stroke="black"/>
<path d="M131.5 259V242H158C162.4 242 166.5 258.333 168 266.5L154.5 271.5L152.5 266.5C152.5 264 151.8 259 149 259H131.5Z" fill="#FFAB91" fill-opacity="0.7" stroke="black"/>
<path d="M291 556V459.5H339.5V577.5H286.5V556H291Z" fill="#90CAF9" fill-opacity="0.7" stroke="black"/>
<path d="M288.5 447V400.5H337V447H288.5Z" fill="#90CAF9" fill-opacity="0.7" stroke="black"/>
<path d="M205.5 404V399.5L236 405L250.5 400.5L255 408L249.5 412.5V416H260V424.5H247V428.5H265V436H245.5V440.5H255V448H234V445.5H222V448L204 450.5V448H201V440.5H213V436H197V428.5H210.5V424.5H192.5V416H207V412.5H198V404H205.5Z" fill="#90CAF9" fill-opacity="0.7" stroke="black"/>
<path opacity="0.7" d="M174.5 221.5V186H207.5V189H211.5V224H200.5V221.5H174.5Z" fill="#A5D6A7" stroke="black"/>
<path d="M125.5 200V190.5H134.5V200H133.5V203H148V200H150.5V188.5H155.25H160V203H157.5V210H156V213.5H131V210H120.5V200H125.5Z" fill="#A5D6A7" fill-opacity="0.7" stroke="black"/>
<path opacity="0.7" d="M58.5 501.825V389.663L119.175 392.614L120.5 521.011C106.987 521.503 78.2128 522.191 71.2179 521.011C64.2231 519.83 59.8248 507.728 58.5 501.825Z" fill="#90CAF9" stroke="black"/>
<path d="M110.5 583V524.5H167.5V583H110.5Z" fill="#FFF59D" fill-opacity="0.7" stroke="black"/>
<path d="M0.75 554V522H34.75V554H0.75Z" fill="#CE93D8" fill-opacity="0.7" stroke="black"/>
<path d="M11 492.5V465.5H44V504.5H34.5V510.5H2V492.5H11Z" fill="#A5D6A7" fill-opacity="0.7" stroke="black" stroke-width="2"/>
<path d="M22.5 437V398H45.5V459.5H12.5V437H22.5Z" fill="#FFAB91" fill-opacity="0.7" stroke="black"/>
<path d="M227.5 197V163H254V166H270.5V197H267.5V203H232V197H227.5Z" fill="#CE93D8" fill-opacity="0.7" stroke="black"/>
<path d="M134 148.5H136.5V147H157.5V144.5H166.5L168 147H170V156L167 158.5V174.5H165.5V181H163V183.5H123V173L127.5 172.5V163.5L134 158V148.5Z" fill="#A5D6A7" fill-opacity="0.7" stroke="black"/>
<path d="M176.5 142.5V135H210.5V136H216.5V139.5H222.5V148.5H212V154V164.5H214.5V173.5H203V172H179V167.5H176.5V161.5H175V152.5H178V147H179V142.5H176.5Z" fill="#A5D6A7" fill-opacity="0.7" stroke="black"/>
<path opacity="0.7" d="M122 365.5V299L130.5 313H147L167 365.5H122Z" fill="#90CAF9" stroke="black"/>
<path d="M152 110.5V63V40C159.333 27 184.5 1 226.5 1C268.5 1 288.333 27 293 40L295.5 110.5H152Z" fill="#A5D6A7" fill-opacity="0.7" stroke="black"/>
<path d="M353 582.5V454H426.5C438.1 454 442.667 460 443.5 463V582.5H353Z" fill="#FFAB91" fill-opacity="0.7" stroke="black"/>
</svg>
