<svg width="778" height="902" viewBox="0 0 778 902" fill="none" xmlns="http://www.w3.org/2000/svg">
<g id="Frame 1">
<g id="Group 1">
<path id="StudentLearning&#38;ActivityCenter" d="M305 426.5V397H323V402H339.5V392H347V397H350.5V419.5H358V426.5H305Z" fill="#FFF59D" fill-opacity="0.7" stroke="black"/>
<path id="ComprehensiveStadium" d="M233 401V384H259.5C263.9 384 268 400.333 269.5 408.5L256 413.5L254 408.5C254 406 253.3 401 250.5 401H233Z" fill="#FFAB91" fill-opacity="0.7" stroke="black"/>
<path id="ScienceandEngineeringBuilding" d="M390.5 693.5V597H439V715H386V693.5H390.5Z" fill="#90CAF9" fill-opacity="0.7" stroke="black"/>
<path id="LaboratoryBuilding" d="M386 585.5V539H434.5V585.5H386Z" fill="#90CAF9" fill-opacity="0.7" stroke="black"/>
<path id="GHKBuilding" d="M306 543.5V539L336.5 544.5L351 540L355.5 547.5L350 552V555.5H360.5V564H347.5V568H365.5V575.5H346V580H355.5V587.5H334.5V585H322.5V587.5L304.5 590V587.5H301.5V580H313.5V575.5H297.5V568H311V564H293V555.5H307.5V552H298.5V543.5H306Z" fill="#90CAF9" fill-opacity="0.7" stroke="black"/>
<path id="OrchidStudentApa" opacity="0.7" d="M277 365.5V330H310V333H314V368H303V365.5H277Z" fill="#A5D6A7" stroke="black"/>
<path id="BanbooStudentApa" d="M229 344.5V335H238V344.5H237V347.5H251.5V344.5H254V333H258.75H263.5V347.5H261V354.5H259.5V358H234.5V354.5H224V344.5H229Z" fill="#A5D6A7" fill-opacity="0.7" stroke="black"/>
<path id="PublicTeachingBuilding" opacity="0.7" d="M162.75 639.825V527.663L223.425 530.614L224.75 659.011C211.237 659.503 182.463 660.191 175.468 659.011C168.473 657.83 164.075 645.728 162.75 639.825Z" fill="#90CAF9" stroke="black"/>
<path id="WenKenBuilding" d="M214.75 721V662.5H271.75V721H214.75Z" fill="#FFF59D" fill-opacity="0.7" stroke="black"/>
<path id="CanteenNo. 1" d="M105 692V660H139V692H105Z" fill="#CE93D8" fill-opacity="0.7" stroke="black"/>
<path id="TrainingBuilding" d="M115.25 630.5V603.5H148.25V642.5H138.75V648.5H106.25V630.5H115.25Z" fill="#A5D6A7" fill-opacity="0.7" stroke="black" stroke-width="2"/>
<path id="BasketballCourt" d="M126.75 575V536H149.75V597.5H116.75V575H126.75Z" fill="#FFAB91" fill-opacity="0.7" stroke="black"/>
<path id="CanteenNo. 2" d="M329 343V309H355.5V312H372V343H369V349H333.5V343H329Z" fill="#CE93D8" fill-opacity="0.7" stroke="black"/>
<path id="ChrysanthemumStudentApa" d="M237 294H239.5V292.5H260.5V290H269.5L271 292.5H273V301.5L270 304V320H268.5V326.5H266V329H226V318.5L230.5 318V309L237 303.5V294Z" fill="#A5D6A7" fill-opacity="0.7" stroke="black"/>
<path id="PlumStudentApa" d="M277.5 288.5V281H311.5V282H317.5V285.5H323.5V294.5H313V300V310.5H315.5V319.5H304V318H280V313.5H277.5V307.5H276V298.5H279V293H280V288.5H277.5Z" fill="#A5D6A7" fill-opacity="0.7" stroke="black"/>
<path id="BusinessFaculty" opacity="0.7" d="M225 506.5V440L233.5 454H250L270 506.5H225Z" fill="#90CAF9" stroke="black"/>
<path id="StudentDormitoryArea2" d="M255 255.5V208V185C262.333 172 287.5 146 329.5 146C371.5 146 391.333 172 396 185L398.5 255.5H255Z" fill="#A5D6A7" fill-opacity="0.7" stroke="black"/>
<path id="Playground" d="M451 718.5V590H524.5C536.1 590 540.667 596 541.5 599V718.5H451Z" fill="#FFAB91" fill-opacity="0.7" stroke="black"/>
</g>
</g>
</svg>
